<svg version="1" xmlns="http://www.w3.org/2000/svg" width="1085.333" height="1085.333" viewBox="0 0 814.000000 814.000000"><path d="M214.4 283.6c-29.5 4.9-59.7 21.9-79 44.5-15.3 17.9-24.3 35.3-30.2 58.9-2.5 9.7-2.7 12.1-2.7 31s.2 21.3 2.7 31c4.5 18 9.7 29.9 19.3 44.5 20.4 31 52.6 52.1 90.7 59.2 8.5 1.6 22.8 1.8 173.6 2l164.2.3v-45h70.5c46.3 0 70.5-.3 70.5-1s-24.5-1-71.5-1H551v44H394.8c-169.1 0-160.3.2-177.3-5.5-18.6-6.1-35-16.2-50-30.7-16.5-15.8-28.1-34-34.9-54.9-5.3-16.2-6.9-28.1-6.4-47.4.2-9 .7-16.7 1.1-17.1.8-.8 100.9 4.6 101.8 5.5.3.3 2.1 22 3.8 48.1 1.8 26.1 3.5 48.2 3.9 49 .3.8 2.1-20.8 4.1-48l3.6-49.5 12-.7c6.6-.4 19.9-1.1 29.5-1.7 9.6-.6 27.7-1.6 40.3-2.3 12.5-.7 22.7-1.5 22.7-1.8 0-.3-18.8-1.6-41.7-2.9-23-1.3-46.5-2.6-52.3-3l-10.5-.6-3.4-48.8c-1.9-26.8-3.8-48.7-4.1-48.7-.3 0-2.2 21.9-4.1 48.7l-3.4 48.8-46 2.7c-25.3 1.5-48.2 2.7-50.8 2.7l-4.9.1.7-4.3c1.1-6.6 7-23.8 11.1-31.9 11.9-23.8 31.6-44.7 54.9-58.1 9.4-5.4 23.7-11.1 33.2-13.3 9.5-2.1 10.4-2.4 9.8-3.5-.9-1.3-13.6-.9-23.1.7z"/><path d="M257.2 317.6c-5.8 10.6-6.2 11.8-4.8 13.2 1.4 1.5 1.9 1.3 5-2.1 1.8-2 4-3.7 4.7-3.7 3.3 0 5.9 1.4 5.9 3 0 2.6 2.8 4.6 4.2 3.2.9-.9.9-3.4-.1-10.2-1.9-13.6-2.3-14.5-5.7-14.8-2.7-.2-3.2.4-9.2 11.4zm9.1.1c.6 3 .4 3.3-1.8 3.3-1.4 0-2.5-.3-2.5-.6 0-.7 3.3-6.4 3.6-6.1 0 .1.4 1.7.7 3.4zM280.1 313.6c-2.6 1.9-5.1 7.1-5.1 10.9 0 4 4.1 7.5 8.8 7.5 4 0 6.9-2 5.7-4-.3-.5-2.4-1-4.6-1-3.3 0-4-.3-3.7-1.8.2-1.2 1.6-1.9 4.7-2.3 6.6-.9 9-5 5.1-8.9-2.4-2.4-7.7-2.6-10.9-.4zm6.7 3.6c-.3.7-1.5 1.4-2.9 1.6-2.3.2-2.3.2-.5-1.3 2.4-1.8 3.9-2 3.4-.3zM294.5 320.7c-1.5 7.9-1.5 8.7 0 10.2s1.7 1.4 3.1-.3c.8-1.1 1.4-2.8 1.4-3.8 0-3.5 2.9-8.8 5.4-9.7 5.5-2.2 3.6-4.9-3.5-4.9h-4.7l-1.7 8.5zM311.1 313.6c-2.6 1.9-5.1 7.1-5.1 10.8 0 3 5.2 7.6 8.6 7.6 4.1 0 8.5-2.9 10-6.5 2-5 1.7-8.3-1.1-11-2.9-3-8.8-3.4-12.4-.9zm8.1 6.9c-.4 3.3-2.8 6.5-4.9 6.5-1.4 0-1.7-1.1-1.3-4.5.4-3.6 2-5.6 4.3-5.3 1.8.2 2.1.8 1.9 3.3zM329.6 313.6c-2.7 2.6-2 7 1.4 9.4 3.9 2.7 2.9 4.4-2.2 3.7-3.6-.5-3.9-.3-3.6 1.6.6 4.1 8.5 4.8 12.2 1.1 2.6-2.5 1.9-6-1.5-8.7-3.8-2.9-3.1-5.1 1.2-4.2 2.4.6 2.9.3 2.9-1.3 0-3.4-7.5-4.6-10.4-1.6zM341.9 324.1c-1.7 8.9-2 12.2-1.2 13 1.8 1.8 4 .4 4.6-3 .6-2.8.9-3 3.5-2.5 4.2.9 7.1-1.1 9.4-6.3 2.3-5.1 1.8-10.7-1-12.2-1-.5-4.3-.9-7.4-.9l-5.6.1-2.3 11.8zm12.1-4.2c0 3.7-3.1 7.7-5.3 6.8-2.2-.8-2.1-2.5.3-6.5 2.5-4.1 5-4.3 5-.3zM365.2 314.3c-4.5 4.8-5.3 11-2.1 15.1 1.9 2.4 2.5 2.6 7.6 2.2 3-.3 5.6-.6 5.8-.8.8-.9 3.6-16.1 3.2-17.2-.3-.8-2.7-1.3-6.4-1.4-5-.1-6.3.2-8.1 2.1zm8.3 5.4c-1.7 7-6.5 10-6.5 4.1 0-3.6 2.4-6.8 5.3-6.8 1.6 0 1.8.5 1.2 2.7zM384.6 315c-6.9 8.3-2.6 19 6.6 16.4 2.3-.7 3.3-1.6 3.3-2.9 0-1.7-.6-2-3.6-1.7-4.3.3-5.1-.9-3.5-5.8 1-3.2 1.5-3.5 5-3.6 2.2 0 4.2-.6 4.4-1.2.7-2.3-2-4.2-5.8-4.2-3 0-4.4.6-6.4 3zM401.1 313.6c-2.6 1.9-5.1 7.1-5.1 10.9 0 4 4.1 7.5 8.8 7.5 4.1 0 7.3-2.3 5.6-4-.5-.5-2.6-1-4.7-1.2-5.4-.4-5-2.1.8-3.5 7.3-1.8 9.4-5.4 5.5-9.3-2.4-2.4-7.7-2.6-10.9-.4zm6.9 3.4c0 1.3-2.8 2.5-3.8 1.6-.3-.4 0-1.1.8-1.6 2-1.3 3-1.2 3 0zM315.3 352.6c-.3.8.2 2.3 1.1 3.2 1.5 1.5 1.7 1.5 3.3 0 1.3-1.4 1.4-2 .3-3.2-1.6-2-3.9-2-4.7 0zM257.5 354.2c-.3 1.3-1.4 6.6-2.5 11.8-1.7 8.8-1.8 9.6-.3 10.7 2.1 1.6 11.5 1.7 13 .2 2.1-2.1.3-3.9-3.9-3.9-3.7 0-3.9-.2-3.6-2.7.3-2.3.9-2.9 4.1-3.4 4.4-.7 5.2-1.3 4.4-3.4-.4-.9-1.9-1.5-3.7-1.5-2.5 0-3-.4-3-2.4 0-2.6 1.2-3.2 6.5-3.5 1.6-.1 3.3-.5 3.8-1 2-2-.7-3.1-7.3-3.1-6.4 0-7 .2-7.5 2.2zM272.5 366.8c-1.5 7.8-1.5 8.6 0 10.1s1.7 1.4 3.1-.3c.8-1.1 1.4-2.8 1.4-3.8 0-4.8 4.7-11.4 6.6-9.5.3.3 0 3.1-.7 6.2-1.1 4.9-1 5.8.3 7.2 2.3 2.2 3.5 1 4.7-4.8 2.5-11.4 1.1-13.8-7.8-13.7l-5.9.1-1.7 8.5zM295.2 360.3c-4.5 4.8-5.3 11-2.1 15.2 1.7 2.1 2.8 2.6 5 2.3 1.6-.3 2.9-.1 2.9.3 0 1.3-3.2 1.9-6.6 1.3-2.6-.5-3.4-.3-3.4.8 0 2.5 2.3 3.8 6.6 3.8 6.5 0 8.1-2 10.5-13.3 1.2-5.3 1.9-10.3 1.6-11-.3-.9-2.6-1.4-6.4-1.5-5-.1-6.3.2-8.1 2.1zm8.3 5.4c-1.6 6.9-6.5 10-6.5 4.2 0-4.4 1.7-6.9 4.6-6.9 2.3 0 2.5.3 1.9 2.7zM312.6 366.6c-1.6 7.9-1.6 8.8-.2 10.2 2.3 2.3 3.4.7 5.3-8 1.7-8.2 1.4-10.8-1.5-10.8-1.6 0-2.2 1.4-3.6 8.6zM320.6 366.8c-1.7 8.3-1.7 8.6 0 9.9 2.8 2 3.7 1.2 5.6-5.2 1.6-5.7 4.1-9.5 5.4-8.3.3.4 0 3.2-.6 6.4-1.1 5.2-1 5.9.6 7.1 1 .7 2.1 1.3 2.6 1.3 1.5 0 2.8-4 3.4-10.8.8-8.4 0-9.1-9.3-9l-5.9.1-1.8 8.5zM344.1 359.6c-2.6 1.9-5.1 7.1-5.1 10.9 0 5.9 8.6 9.7 13.6 6.1 2.5-1.9 1-3.4-3.9-3.8-5.4-.4-5-2.1.8-3.5 7.3-1.8 9.4-5.4 5.5-9.3-2.4-2.4-7.7-2.6-10.9-.4zm6.4 4.5c-.4.5-1.6.9-2.8.9-2.1-.1-2.1-.1-.3-1.5 2-1.5 4.1-1.1 3.1.6zM363.1 359.6c-2.6 1.9-5.1 7.1-5.1 10.9 0 4 4.1 7.5 8.8 7.5 4 0 6.9-2 5.7-4-.3-.5-2.4-1-4.5-1s-4.1-.4-4.5-.9c-.7-1.3 2.7-3.1 5.7-3.1 2.7 0 6.8-3.3 6.8-5.5 0-4.7-8.2-7.1-12.9-3.9zm6.7 3.6c-.3.7-1.5 1.4-2.9 1.6-2.3.2-2.3.2-.5-1.3 2.4-1.8 3.9-2 3.4-.3zM377.5 366.7c-1.5 7.8-1.5 8.7-.1 10.1 2.1 2.1 3.5.7 4.7-4.9 1.3-5.6 3.4-8.9 5.8-8.9 2.3 0 3.4-2.5 1.8-3.8-.7-.6-3.3-1-5.8-1h-4.7l-1.7 8.5zM392.6 359.6c-2.7 2.6-2 7 1.4 9.4 3.8 2.7 2.9 4.4-2.1 3.7-3.3-.4-3.9-.2-3.9 1.4 0 4 8.5 5.4 12 1.9 3-3 2.5-6.4-1.1-9.3-3.7-2.9-3.1-4.9 1.1-4 2.5.5 3 .2 3-1.5 0-3.4-7.5-4.6-10.4-1.6zM291.6 408.5c-24.5 6.7-39.9 29.3-39.9 58.5-.1 21.6 7.8 37.6 23.6 48 9.3 6.1 17.9 8.4 31.2 8.5 15.1 0 22.7-2.6 33.8-11.8 4.6-3.7 4.9-3.8 6.2-2.1.7 1.1 1.9 3.6 2.6 5.6.8 2.6 1.8 3.8 3.1 3.8 1.7 0 1.8-1.2 1.8-20s-.1-20-1.8-20c-1.5 0-2.2 1.3-3.1 5.7-4.8 21.7-19.1 34-39.6 33.7-17.4-.2-30-11-36.2-30.9-2.8-9.4-2.5-34.1.6-45.3 3.7-13.1 10.4-22.1 20.5-27.5 3.5-1.9 5.7-2.2 15.1-2.2 9.8 0 11.6.3 16.7 2.7 11.5 5.4 18.8 15.1 22.4 30 1.3 5.4 2.1 6.8 3.5 6.8 1.8 0 1.9-1 1.9-14.8 0-20.7-.8-28.2-3-28.2-1.2 0-2.1 1.3-2.9 4.4-.6 2.5-1.5 5.7-2.1 7.1l-1 2.7-4.4-4c-5.1-4.7-11.7-8.3-19.5-10.6-6.7-2-22.5-2-29.5-.1zM380.1 409.6c-6.3 5.3-2.8 15.4 5.4 15.4 5 0 8.5-3.6 8.5-8.7-.1-4.2-1.3-6.3-4.7-8.1-3.3-1.8-5.9-1.4-9.2 1.4zM525.6 411.2c-.3 1.3-.8 5.1-1.1 8.5-.6 5.9-.5 6.3 1.5 6.3 1.1 0 2-.7 2-1.5 0-2.8 2.4-6.7 5.1-8 1.4-.8 5.6-1.7 9.3-2.1l6.6-.7v26.6c0 14.6-.4 27.7-.9 29-.6 1.6-2 2.6-4 3-1.8.4-3.1 1.3-3.1 2.2 0 1.3 2.3 1.5 15.5 1.5 12.6 0 15.5-.3 15.5-1.4 0-.8-1.2-1.7-2.7-2.1-5.4-1.3-5.3-.7-5.3-30.8v-28l6.8.7c8 .8 10.9 2.5 13.1 7.7 1 2.5 2.3 3.9 3.4 3.9 1.3 0 1.7-.5 1.3-1.8-.2-.9-.7-4.7-1.1-8.5l-.7-6.7H526l-.4 2.2zM594 411c0 1.5.7 2 2.8 2 5.8 0 5.7-.4 6 28.4.2 17.3-.1 27.2-.8 28.5-.6 1.1-2.6 2.3-4.5 2.7-2 .3-3.5 1.2-3.5 2 0 1.1 2.6 1.4 13 1.4 10.3 0 13-.3 13-1.4 0-.8-1.6-1.5-4.1-1.9-2.3-.3-4.7-1-5.3-1.7-.7-.7-1.2-8.7-1.4-24.3l-.3-23.2 12.5 26c9.1 19.1 12.9 26.1 14.2 26.3 1.6.2 4.1-4.5 13.9-25.7l12-25.8.3 21.1c.1 11.6 0 22.1-.3 23.4-.4 1.6-1.7 2.5-5 3.4-2.5.7-4.5 1.8-4.5 2.5 0 1 3.8 1.3 17 1.3 14.2 0 17-.2 17-1.5 0-.8-1.4-1.7-3.5-2.1-2-.3-4-1.5-4.5-2.5-1.2-2.2-1.3-52.9-.1-54.7.5-.8 2.4-1.7 4.2-2.1 2.1-.4 3.5-1.4 3.7-2.4.3-1.6-.7-1.7-11.8-1.5l-12.1.3-10.7 23.2-10.7 23.2-1.8-3.7c-.9-2-6-12.6-11.2-23.5l-9.4-19.7H606c-11.3 0-12 .1-12 2zM378.3 453.4c-8.4 1.6-10.3 2.3-10.3 3.8 0 1.3 1.1 1.9 5 2.4 3.7.5 5.4 1.3 6.3 2.8.8 1.4 1.3 9.5 1.5 25.6.3 27.8.2 28-7.6 29.4-4 .8-5.2 1.4-5.2 2.8 0 1.7 1.3 1.8 18.5 1.8 17.6 0 18.5-.1 18.5-1.9 0-1.6-.9-2.1-4.5-2.6-2.4-.4-5-1.4-5.7-2.3-1-1.1-1.4-9.2-1.6-32.9l-.3-31.3-2.2.2c-1.2 0-6.8 1-12.4 2.2zM425.4 452.4c-5.5 2.4-10.4 11-10.4 18 .1 8 5.7 14.3 18.5 20.8 12.9 6.5 17.5 11.2 17.5 17.5 0 3.5-3.1 8.8-6.2 10.4-3.2 1.7-10.8 1.5-14.6-.5-3.9-2-8.8-8.5-10.4-13.8-.8-2.6-1.7-3.8-3-3.8-1.6 0-1.8 1-1.8 11.5 0 10.8.1 11.5 2 11.5 1.1 0 2-.6 2-1.3 0-.7.7-2.3 1.6-3.6 1.6-2.2 1.6-2.2 3.8-.3 8.9 8.1 24 7.1 31-2.1 3.4-4.4 4.8-11 3.5-16.6-2.1-9.5-5.2-12.6-19.9-20.2-16-8.1-19.6-14.5-12.6-21.5 2.7-2.7 4.2-3.4 7.3-3.4 6.7 0 13.4 5.8 16.4 14.2.8 2.5 1.9 3.8 3.1 3.8 1.6 0 1.8-1.1 1.8-10.5 0-9.5-.2-10.5-1.8-10.5-1.1 0-2.4 1.1-3 2.5-1.3 2.9-2.4 3.1-4.3.9-3.5-4.3-14-5.8-20.5-3zM481.3 453c-4.2 2.5-8.3 8.9-9 13.9-1.4 10.3 2.8 16.1 17.3 24 13.5 7.4 16.1 9.5 17.4 13.9 2.5 8.3-3.1 15.6-11.8 15.5-8.4-.1-13.3-3.9-17.7-13.6-4.2-9.1-5.5-7.8-5.5 5.8 0 10.3.2 11.5 1.8 11.5 1 0 2.3-1.4 3.2-3.6l1.5-3.5 4.1 3c10.4 7.7 25.9 4.8 31.4-5.9 2.6-5.1 2.6-14 .1-19.5s-6.3-8.5-19.3-15.1c-11.3-5.8-14.8-9.1-14.8-14.2 0-5.6 4.8-10.2 10.6-10.2 6.6 0 13.7 6.3 16.4 14.6.8 2.3 1.8 3.4 3.1 3.4 1.8 0 1.9-.8 1.9-10.5 0-9.9-.1-10.5-2-10.5-1.2 0-2.5 1-3.2 2.5-1.3 2.9-2.1 3.1-3.9.8-3.8-4.5-15.9-5.8-21.6-2.3z"/></svg>